<?xml version="1.0" encoding="iso-8859-1"?>
<!-- Uploaded to: SVG Repo, www.svgrepo.com, Generator: SVG Repo Mixer Tools -->
<svg height="800px" width="800px" version="1.1" id="Layer_1" xmlns="http://www.w3.org/2000/svg" xmlns:xlink="http://www.w3.org/1999/xlink" 
	 viewBox="0 0 512 512" xml:space="preserve">
<path style="fill:#DEDEE0;" d="M232.91,484.679l-44.377-207.084l14.586-116.676c0.804-6.429-1.191-12.893-5.48-17.75
	c-2.571-2.911-5.822-5.058-9.404-6.326V67.765C188.235,30.399,157.836,0,120.471,0S52.706,30.399,52.706,67.765v69.078
	c-3.582,1.268-6.834,3.415-9.404,6.326c-4.289,4.856-6.284,11.321-5.48,17.75l14.586,116.676L8.031,484.679
	c-1.429,6.67,0.232,13.628,4.521,18.933S23.296,512,30.118,512h90.353h90.353c6.822,0,13.277-3.083,17.566-8.388
	S234.339,491.348,232.91,484.679z"/>
<path style="fill:#C3C3C7;" d="M197.64,143.169c-2.571-2.911-5.822-5.058-9.404-6.326c-2.396-0.848-4.933-1.313-7.529-1.313h-15.059
	h-22.588h-22.588H97.882H75.294H60.235c-2.596,0-5.134,0.465-7.529,1.313c-3.582,1.268-6.834,3.415-9.404,6.326
	c-4.289,4.856-6.284,11.321-5.48,17.75l14.586,116.676l0.8-3.738c2.034-9.489,9.859-16.488,19.289-17.662
	c0.92-0.114,1.851-0.193,2.798-0.193h19.941h25.236h25.236h19.941c0.949,0,1.878,0.078,2.798,0.193
	c9.43,1.175,17.254,8.174,19.289,17.662l0.8,3.738l14.586-116.676C203.924,154.49,201.928,148.025,197.64,143.169z"/>
<path style="fill:#A9A8AE;" d="M97.882,135.529H75.294H60.235c-2.596,0-5.134,0.465-7.529,1.313
	c-3.582,1.268-6.834,3.415-9.404,6.326c-4.289,4.856-6.284,11.321-5.48,17.75l14.586,116.676l0.8-3.738
	c2.034-9.489,9.859-16.488,19.289-17.662c0.92-0.114,1.851-0.193,2.798-0.193h19.941h25.236V135.529H97.882z"/>
<g>
	<path style="fill:#D6D5D8;" d="M52.706,67.765v69.078c2.396-0.848,4.933-1.313,7.529-1.313h15.059h22.588h22.588V0
		C83.105,0,52.706,30.399,52.706,67.765z"/>
	<path style="fill:#D6D5D8;" d="M95.235,256.002H75.294c-0.949,0-1.878,0.078-2.798,0.193c-9.43,1.175-17.254,8.174-19.289,17.663
		l-0.8,3.738L8.031,484.679c-1.429,6.67,0.232,13.628,4.521,18.933S23.296,512,30.118,512h90.353V256.002H95.235z"/>
</g>
<path style="fill:#EFC27B;" d="M391.529,0c-37.365,0-67.765,30.399-67.765,67.765s30.399,67.765,67.765,67.765
	c37.365,0,67.765-30.399,67.765-67.765S428.896,0,391.529,0z"/>
<path style="fill:#A9A8AE;" d="M391.529,180.706c-62.276,0-112.941,50.665-112.941,112.941v75.294
	c0,12.475,10.114,22.588,22.588,22.588h22.588v97.882c0,12.475,10.113,22.588,22.588,22.588h45.176h45.176
	c12.475,0,22.588-10.113,22.588-22.588v-97.882h22.588c12.475,0,22.588-10.114,22.588-22.588v-75.294
	C504.471,231.371,453.807,180.706,391.529,180.706z"/>
<path style="fill:#ECB45C;" d="M323.765,67.765c0,37.365,30.399,67.765,67.765,67.765V0C354.164,0,323.765,30.399,323.765,67.765z"
	/>
<path style="fill:#77757F;" d="M278.588,293.647v75.294c0,12.475,10.114,22.588,22.588,22.588h22.588v97.882
	c0,12.475,10.113,22.588,22.588,22.588h45.176V180.706C329.254,180.706,278.588,231.371,278.588,293.647z"/>
</svg>